<?xml version="1.0" standalone="no"?>
<!DOCTYPE svg PUBLIC "-//W3C//DTD SVG 20010904//EN"
 "http://www.w3.org/TR/2001/REC-SVG-20010904/DTD/svg10.dtd">
<svg version="1.0" xmlns="http://www.w3.org/2000/svg"
 width="800.000000pt" height="800.000000pt" viewBox="0 0 800.000000 800.000000"
 preserveAspectRatio="xMidYMid meet">

<g transform="translate(0.000000,800.000000) scale(0.100000,-0.100000)"
fill="#000000" stroke="none">
<path d="M3800 5215 c-118 -69 -239 -139 -267 -156 l-53 -29 0 -61 c0 -47 3
-60 13 -56 7 3 127 71 266 151 139 80 256 146 261 146 5 0 122 -66 261 -146
139 -80 259 -148 266 -151 11 -4 13 7 11 57 l-3 62 -105 60 c-58 33 -172 100
-255 149 -82 48 -157 90 -165 93 -9 4 -106 -47 -230 -119z"/>
<path d="M3750 4904 l-265 -153 -5 -713 -5 -713 -137 -3 -138 -3 0 386 0 387
57 -31 c31 -17 60 -31 65 -31 4 0 8 29 8 64 l0 64 -51 32 c-28 17 -56 30 -63
28 -7 -2 -143 -79 -304 -173 l-292 -170 0 -277 0 -278 -120 0 -120 0 0 -65 0
-65 1640 0 1640 0 0 65 0 64 -137 3 -138 3 -5 278 -5 279 -285 165 c-157 91
-290 167 -297 170 -7 3 -37 -10 -67 -28 l-56 -34 0 -67 0 -68 60 30 c33 16 64
30 70 30 7 0 9 -121 8 -377 l-3 -378 -120 0 -120 0 -3 712 -2 711 -267 154
c-146 84 -269 154 -272 155 -3 0 -125 -68 -271 -153z m208 -805 l-3 -774 -70
0 -70 0 -3 746 -2 745 67 36 c38 20 71 33 76 29 4 -4 6 -356 5 -782z m237 -29
l0 -745 -72 -3 -73 -3 0 786 0 786 73 -38 72 -38 0 -745z m-477 -37 l-3 -708
-70 0 -70 0 0 675 0 674 55 32 c100 58 90 131 88 -673z m652 677 l60 -30 0
-680 0 -680 -70 0 -70 0 0 710 c0 480 3 710 10 710 6 0 37 -14 70 -30z m-1270
-1040 l0 -350 -70 0 -70 0 0 315 0 315 68 34 c37 19 68 35 70 36 1 0 2 -157 2
-350z m1948 -35 l-3 -310 -70 0 -70 0 -3 335 c-1 184 0 341 3 348 3 9 25 2 75
-25 l70 -37 -2 -311z m-2188 -40 l0 -275 -70 0 -70 0 0 245 0 245 58 29 c31
17 63 30 70 31 9 0 12 -61 12 -275z m2371 243 l59 -33 -2 -240 -3 -240 -70 0
-70 0 -3 273 c-3 311 -9 293 89 240z"/>
<path d="M3190 4490 c-14 -11 -29 -20 -33 -20 -4 0 -20 -9 -35 -19 -15 -10
-134 -81 -264 -156 l-238 -138 0 -64 0 -65 23 14 c12 8 56 34 97 58 75 43 212
123 240 140 8 5 66 38 129 74 l114 66 49 -30 c26 -16 50 -30 53 -30 3 0 5 27
5 60 l0 59 -55 36 c-31 19 -56 35 -58 35 -1 0 -13 -9 -27 -20z"/>
<path d="M4728 4473 l-58 -34 0 -65 0 -66 38 23 c20 13 47 29 60 37 19 13 25
13 40 1 9 -8 28 -20 42 -28 14 -8 136 -79 273 -158 136 -79 250 -143 253 -143
3 0 4 28 2 62 l-3 62 -110 64 c-60 35 -123 72 -140 82 -16 10 -86 50 -155 90
-69 39 -138 80 -155 90 -30 17 -30 17 -87 -17z"/>
<path d="M2620 3015 l0 -65 1380 0 1380 0 0 65 0 65 -1380 0 -1380 0 0 -65z"/>
</g>
</svg>
